<?xml version="1.0" standalone="no"?>
<!DOCTYPE svg PUBLIC "-//W3C//DTD SVG 20010904//EN"
 "http://www.w3.org/TR/2001/REC-SVG-20010904/DTD/svg10.dtd">
<svg version="1.0" xmlns="http://www.w3.org/2000/svg"
 width="80.000000pt" height="80.000000pt" viewBox="0 0 80.000000 80.000000"
 preserveAspectRatio="xMidYMid meet">
<metadata>
Created by potrace 1.14, written by Peter Selinger 2001-2017
</metadata>
<g transform="translate(0.000000,80.000000) scale(0.100000,-0.100000)"
fill="#000000" stroke="none">
<path d="M213 753 c-32 -6 -73 -52 -73 -82 1 -40 18 -63 121 -169 94 -95 119
-125 102 -120 -12 4 -153 -136 -153 -151 0 -7 -5 -9 -12 -5 -8 5 -9 2 -5 -10
4 -11 3 -15 -4 -11 -6 4 -13 -2 -16 -14 -3 -12 -10 -21 -15 -21 -6 0 -8 -9 -5
-20 3 -10 0 -21 -7 -24 -7 -3 -7 -5 2 -5 7 -1 10 -5 7 -11 -9 -15 26 -48 60
-55 27 -6 28 -5 13 8 -19 15 -23 27 -10 27 5 0 15 -11 22 -25 l14 -26 13 23
c7 13 12 17 13 9 0 -11 3 -11 15 -1 10 9 15 9 15 1 0 -10 -13 -15 -32 -12 -5
0 -8 -3 -8 -7 0 -4 31 -8 70 -8 38 0 64 4 57 8 -7 4 -7 8 -2 8 6 0 16 -5 23
-12 9 -9 12 -9 12 0 0 7 5 12 11 12 5 0 7 -5 4 -10 -10 -16 18 -7 31 9 9 11
12 12 19 1 6 -9 4 -11 -5 -5 -8 5 -11 4 -7 -2 7 -10 78 -7 107 4 8 3 19 5 24
4 5 -1 6 5 3 13 -4 10 -1 13 8 10 40 -16 36 75 -5 125 -17 19 -23 21 -35 11
-9 -8 -15 -8 -15 -2 0 6 6 12 13 15 7 2 -16 32 -56 73 -38 38 -67 62 -65 54 2
-8 12 -20 23 -27 11 -7 15 -12 10 -13 -27 -1 -51 29 -49 60 2 25 22 51 98 127
134 134 149 195 61 234 -39 17 -64 20 -207 18 -90 -2 -173 -4 -185 -6z m339
-52 c15 0 34 -8 42 -17 22 -22 12 -38 -99 -151 l-94 -96 -90 88 c-90 89 -128
142 -111 159 16 16 75 22 200 20 69 -1 137 -2 152 -3z m-125 -335 c-7 -17 24
-56 43 -56 7 0 10 -3 7 -6 -8 -9 57 -74 74 -74 7 0 10 -3 7 -6 -3 -3 5 -17 18
-31 14 -15 27 -37 30 -50 4 -12 10 -20 15 -17 5 3 9 1 9 -4 0 -9 -30 -18 -90
-29 -32 -6 -38 -12 -21 -22 8 -6 9 -11 3 -15 -6 -3 -13 3 -17 14 -4 11 -15 20
-26 20 -11 0 -17 -5 -14 -10 3 -6 1 -10 -4 -10 -6 0 -11 5 -11 10 0 6 -7 10
-16 10 -8 0 -12 -4 -9 -10 3 -5 2 -10 -4 -10 -5 0 -12 6 -15 13 -5 9 -7 9 -12
0 -3 -7 -10 -13 -15 -13 -6 0 -8 4 -5 9 3 5 -5 8 -18 8 -18 0 -23 -4 -19 -16
4 -14 3 -14 -6 -1 -5 8 -18 16 -28 17 -27 2 -75 11 -103 18 -19 5 -22 4 -10
-4 8 -6 10 -11 4 -11 -18 0 -24 12 -13 26 6 7 8 26 6 42 -4 24 -2 29 12 25 9
-2 25 5 35 16 11 12 14 21 9 21 -6 0 -13 7 -17 15 -4 12 -2 13 13 3 15 -9 22
-8 36 5 9 9 14 21 10 27 -4 6 1 7 11 3 12 -4 15 -3 10 5 -4 8 0 12 11 12 17 1
17 1 1 14 -22 16 -23 23 -3 23 8 0 12 -4 9 -9 -3 -4 0 -8 5 -8 16 0 61 42 56
51 -3 4 4 5 15 2 11 -3 20 0 20 6 0 6 3 11 6 11 3 0 4 -6 1 -14z m-57 -11 c0
-8 -2 -15 -4 -15 -2 0 -6 7 -10 15 -3 8 -1 15 4 15 6 0 10 -7 10 -15z m-20
-15 c0 -5 -2 -10 -4 -10 -3 0 -8 5 -11 10 -3 6 -1 10 4 10 6 0 11 -4 11 -10z
m-60 -40 c0 -5 -5 -10 -11 -10 -5 0 -7 5 -4 10 3 6 8 10 11 10 2 0 4 -4 4 -10z
m220 6 c0 -3 -4 -8 -10 -11 -5 -3 -10 -1 -10 4 0 6 5 11 10 11 6 0 10 -2 10
-4z m13 -26 c-3 -12 -8 -19 -11 -16 -5 6 5 36 12 36 2 0 2 -9 -1 -20z m-258
-20 c-3 -5 -11 -10 -16 -10 -6 0 -7 5 -4 10 3 6 11 10 16 10 6 0 7 -4 4 -10z
m285 6 c0 -3 -4 -8 -10 -11 -5 -3 -10 -1 -10 4 0 6 5 11 10 11 6 0 10 -2 10
-4z m20 -16 c0 -5 -5 -10 -11 -10 -5 0 -7 5 -4 10 3 6 8 10 11 10 2 0 4 -4 4
-10z m-340 -44 c0 -3 -4 -8 -10 -11 -5 -3 -10 -1 -10 4 0 6 5 11 10 11 6 0 10
-2 10 -4z m380 -13 c0 5 5 5 10 2 6 -4 8 -11 4 -16 -7 -12 -34 8 -34 25 0 6 5
4 10 -4 5 -8 10 -11 10 -7z m27 -37 c0 -8 -6 -12 -15 -9 -11 5 -11 7 0 14 7 5
13 9 14 9 0 0 1 -6 1 -14z m-466 -29 c-10 -9 -11 -8 -5 6 3 10 9 15 12 12 3
-3 0 -11 -7 -18z m392 -51 c4 -10 1 -13 -8 -9 -8 3 -12 9 -9 14 7 12 11 11 17
-5z m31 -1 c-4 -8 -8 -15 -10 -15 -2 0 -4 7 -4 15 0 8 4 15 10 15 5 0 7 -7 4
-15z m-229 -15 c3 -5 1 -10 -4 -10 -6 0 -11 5 -11 10 0 6 2 10 4 10 3 0 8 -4
11 -10z"/>
</g>
</svg>
